HIERARCHY
ROOT hip
{
	OFFSET 0.000000 0.000000 0.000000
	CHANNELS 6 Xposition Yposition Zposition Xrotation Zrotation Yrotation 
	JOINT abdomen
	{
		OFFSET 0.000000 3.422050 0.000000
		CHANNELS 3 Xrotation Zrotation Yrotation 
		JOINT chest
		{
			OFFSET 0.000000 8.486693 -0.684411
			CHANNELS 3 Xrotation Zrotation Yrotation 
			JOINT neck
			{
				OFFSET 0.000000 10.266162 -0.273764
				CHANNELS 3 Xrotation Zrotation Yrotation 
				JOINT head
				{
					OFFSET 0.000000 3.148285 0.000000
					CHANNELS 3 Xrotation Zrotation Yrotation 
					End Site
					{
						OFFSET 0.000000 3.148289 0.000000
					}
				}
			}
			JOINT lCollar
			{
				OFFSET 3.422053 6.707223 -0.821293
				CHANNELS 3 Yrotation Zrotation Xrotation 
				JOINT lShldr
				{
					OFFSET 3.285171 0.000000 0.000000
					CHANNELS 3 Zrotation Yrotation Xrotation 
					JOINT lForeArm
					{
						OFFSET 10.129278 0.000000 0.000000
						CHANNELS 3 Yrotation Zrotation Xrotation 
						JOINT lHand
						{
							OFFSET 8.486692 0.000000 0.000000
							CHANNELS 3 Zrotation Yrotation Xrotation 
							End Site
							{
								OFFSET 4.106464 0.000000 0.000000
							}
						}
					}
				}
			}
			JOINT rCollar
			{
				OFFSET -3.558935 6.707223 -0.821293
				CHANNELS 3 Yrotation Zrotation Xrotation 
				JOINT rShldr
				{
					OFFSET -3.148289 0.000000 0.000000
					CHANNELS 3 Zrotation Yrotation Xrotation 
					JOINT rForeArm
					{
						OFFSET -10.266159 0.000000 0.000000
						CHANNELS 3 Yrotation Zrotation Xrotation 
						JOINT rHand
						{
							OFFSET -8.349810 0.000000 0.000000
							CHANNELS 3 Zrotation Yrotation Xrotation 
							End Site
							{
								OFFSET -4.106464 0.000000 0.000000
							}
						}
					}
				}
			}
		}
	}
	JOINT lThigh
	{
		OFFSET 5.338403 -1.642589 1.368821
		CHANNELS 3 Xrotation Zrotation Yrotation 
		JOINT lShin
		{
			OFFSET -2.053232 -20.121670 0.000000
			CHANNELS 3 Xrotation Zrotation Yrotation 
			JOINT lFoot
			{
				OFFSET 0.000000 -19.300380 -1.231939
				CHANNELS 3 Xrotation Yrotation Zrotation 
				End Site
				{
					OFFSET 0.000000 -2.463878 4.653993
				}
			}
		}
	}
	JOINT rThigh
	{
		OFFSET -5.338403 -1.642589 1.368821
		CHANNELS 3 Xrotation Zrotation Yrotation 
		JOINT rShin
		{
			OFFSET 2.053232 -20.121670 0.000000
			CHANNELS 3 Xrotation Zrotation Yrotation 
			JOINT rFoot
			{
				OFFSET 0.000000 -19.300380 -1.231939
				CHANNELS 3 Xrotation Yrotation Zrotation 
				End Site
				{
					OFFSET 0.000000 -2.463878 4.653993
				}
			}
		}
	}
}
MOTION
Frames: 8
Frame Time: 0.049897
0.820027 23.148125 -0.578212 17.024033 0.000000 0.000000 -7.555167 0.610718 -0.240010 10.139768 0.567484 -1.138285 13.174701 0.000000 0.000000 -5.441731 0.000000 0.000000 -34.024349 -6.376795 -0.994427 -51.660278 26.646591 -5.823476 -88.493340 -29.361994 -22.567648 43.633430 -5.264503 -21.173325 33.229473 5.236907 -0.060936 49.459190 -25.530807 -5.143029 88.485847 29.360613 -22.563047 -41.049767 5.635481 -22.124437 -18.776102 11.290840 9.776152 95.011955 2.199899 -0.345279 55.867287 8.115466 -15.745633 -18.290817 -11.260923 -9.866083 94.817863 -2.228118 0.381997 55.994419 -7.997021 15.831696 
0.820027 23.148125 -0.642792 17.550436 0.000000 0.000000 -8.006092 0.610713 -0.240011 9.562838 0.567488 -1.138309 14.231173 0.000000 0.000000 -5.152771 0.000000 0.000000 -33.916054 -6.710197 -0.772211 -51.543694 26.588276 -5.786258 -88.493340 -29.361994 -22.567648 43.469555 -5.128244 -21.106457 33.161705 5.628279 0.113908 49.459190 -25.530807 -5.143029 88.485847 29.360613 -22.563047 -41.020893 5.478339 -22.010174 -19.537643 11.318703 9.777883 95.257935 2.219818 -0.337690 55.867287 8.115466 -15.745633 -19.051081 -11.287886 -9.867523 95.066353 -2.248229 0.373831 55.994419 -7.997021 15.831696 
0.820027 23.148125 -0.707372 18.076796 0.000000 0.000000 -8.456986 0.610709 -0.240012 8.985965 0.567493 -1.138334 15.287014 0.000000 0.000000 -4.864005 0.000000 0.000000 -33.806374 -7.043159 -0.549215 -51.427185 26.529881 -5.749190 -88.493340 -29.361994 -22.567648 43.305882 -4.991796 -21.039999 33.092697 6.019418 0.289331 49.459190 -25.530807 -5.143029 88.485847 29.360613 -22.563047 -40.992329 5.321139 -21.896011 -20.299120 11.346581 9.779236 95.503883 2.239703 -0.330016 55.867287 8.115466 -15.745633 -19.811275 -11.314856 -9.868595 95.314857 -2.268306 0.365576 55.994419 -7.997021 15.831696 
0.820027 23.148125 -0.771953 18.603090 0.000000 0.000000 -8.907843 0.610704 -0.240013 8.409182 0.567497 -1.138359 16.342047 0.000000 0.000000 -4.575440 0.000000 0.000000 -33.695328 -7.375673 -0.325430 -51.310802 26.471428 -5.712276 -88.493340 -29.361994 -22.567648 43.142399 -4.855165 -20.973944 33.022427 6.410312 0.465343 49.459190 -25.530807 -5.143029 88.485847 29.360613 -22.563047 -40.964104 5.163888 -21.781965 -21.060472 11.374466 9.780209 95.749847 2.259555 -0.322257 55.867287 8.115466 -15.745633 -20.571346 -11.341832 -9.869304 95.563354 -2.288345 0.357236 55.994419 -7.997021 15.831696 
0.820027 23.148125 -0.836533 19.129290 0.000000 0.000000 -9.358639 0.610699 -0.240014 7.832513 0.567500 -1.138384 17.396097 0.000000 0.000000 -4.287080 0.000000 0.000000 -33.582897 -7.707716 -0.100846 -51.194504 26.412903 -5.675512 -88.493340 -29.361994 -22.567648 42.979115 -4.718347 -20.908295 32.950905 6.800945 0.641955 49.459190 -25.530807 -5.143029 88.485847 29.360613 -22.563047 -40.936180 5.006582 -21.668018 -21.821623 11.402350 9.780806 95.995804 2.279372 -0.314412 55.867287 8.115466 -15.745633 -21.331221 -11.368808 -9.869650 95.811836 -2.308347 0.348808 55.994419 -7.997021 15.831696 
0.820027 23.148125 -0.901113 19.655378 0.000000 0.000000 -9.809367 0.610695 -0.240015 7.255991 0.567504 -1.138408 18.448990 0.000000 0.000000 -3.998924 0.000000 0.000000 -33.469067 -8.039277 0.124546 -51.078331 26.354319 -5.638902 -88.493340 -29.361994 -22.567648 42.816010 -4.581349 -20.843052 32.878124 7.191303 0.819183 49.459190 -25.530807 -5.143029 88.485847 29.360613 -22.563047 -40.908588 4.849229 -21.554188 -22.582514 11.430230 9.781024 96.241776 2.299155 -0.306483 55.867287 8.115466 -15.745633 -22.090830 -11.395772 -9.869630 96.060326 -2.328312 0.340294 55.994419 -7.997021 15.831696 
0.820027 23.148125 -0.965694 20.181335 0.000000 0.000000 -10.260014 0.610690 -0.240016 6.679643 0.567507 -1.138433 19.500547 0.000000 0.000000 -3.710981 0.000000 0.000000 -33.353851 -8.370342 0.350757 -50.962231 26.295660 -5.602439 -88.493340 -29.361994 -22.567648 42.653111 -4.444172 -20.778214 32.804066 7.581367 0.997037 49.459190 -25.530807 -5.143029 88.485847 29.360613 -22.563047 -40.881321 4.691826 -21.440462 -23.343077 11.458094 9.780864 96.487724 2.318903 -0.298469 55.867287 8.115466 -15.745633 -22.850111 -11.422719 -9.869245 96.308800 -2.348238 0.331694 55.994419 -7.997021 15.831696 
0.820027 23.148125 -1.030274 20.707138 0.000000 0.000000 -10.710557 0.610686 -0.240017 6.103501 0.567510 -1.138458 20.550585 0.000000 0.000000 -3.423249 0.000000 0.000000 -33.237236 -8.700894 0.577797 -50.846260 26.236946 -5.566131 -88.493340 -29.361994 -22.567648 42.490417 -4.306823 -20.713789 32.728748 7.971125 1.175529 49.459190 -25.530807 -5.143029 88.485847 29.360613 -22.563047 -40.854378 4.534375 -21.326841 -24.103245 11.485936 9.780327 96.733665 2.338614 -0.290371 55.867287 8.115466 -15.745633 -23.608997 -11.449643 -9.868496 96.557274 -2.368125 0.323007 55.994419 -7.997021 15.831696 
